# xmcd
#
# Track frame offsets: 
#        150
#        17385
#        30263
#        41595
#        53475
#        70074
#        83117
#        100040
#        115757
#        130580
#        141545
#        158877
#        177132
#
# Disc length: 2645 seconds
#
# Revision: 0
# Processed by: cddbd v1.5.2PL0 Copyright (c) Steve Scherf et al.
# Submitted via: ExactAudioCopyFreeDBPlugin 1.0
#
DISCID=960a530d
DTITLE=Sunny War - With The Sun
DYEAR=2018
DGENRE=Blues
TTITLE0=If It Wasn't Broken
TTITLE1=Gotta Live It
TTITLE2=I'm Human
TTITLE3=With the Sun
TTITLE4=He Is My Cell
TTITLE5=The Change You Make
TTITLE6=Til I'm Dead
TTITLE7=Immortal
TTITLE8=Static
TTITLE9=To Love You
TTITLE10=Violent
TTITLE11=Finn
TTITLE12=Come Back
EXTD=
EXTT0=
EXTT1=
EXTT2=
EXTT3=
EXTT4=
EXTT5=
EXTT6=
EXTT7=
EXTT8=
EXTT9=
EXTT10=
EXTT11=
EXTT12=
PLAYORDER=
